<?xml version="1.0" encoding="utf-8"?>
<!-- Generator: Adobe Illustrator 21.0.0, SVG Export Plug-In . SVG Version: 6.00 Build 0)  -->
<svg version="1.1" id="Layer_1" xmlns="http://www.w3.org/2000/svg" xmlns:xlink="http://www.w3.org/1999/xlink" x="0px" y="0px"
	 viewBox="0 0 50 50" style="enable-background:new 0 0 50 50;" xml:space="preserve">
<g>
	<g>
		<path d="M20.6,33.8c0-1.9,0-3.8,0-5.6c0-0.9-0.3-1.3-1.2-1.3c-2.5,0-2.5-0.1-2.5-2.6v-0.1c0-2.4,0-2.5,2.5-2.4
			c1,0,1.3-0.4,1.3-1.3c0-1.6,0-3.3,0.3-4.9c0.6-2.9,2.8-4.5,5.8-4.7c1.2-0.1,2.4,0,3.6,0c1,0,1.4,0.5,1.3,1.4v0.1
			c0,3.3,0,3.3-3.2,3.4c-1.6,0.1-2.3,0.6-2.3,2.3c0,4.6-0.4,3.6,3.5,3.7c2,0,2.1,0,1.9,2v0.1C31.4,27,31.4,27,28.2,27
			c-0.3,0-0.6,0-0.8,0c-0.9-0.1-1.3,0.4-1.2,1.3c0,3.7,0,7.4,0,11.2c0,1.6-0.2,1.7-1.7,1.7c-0.8,0-1.6,0-2.4,0
			c-1,0.1-1.4-0.4-1.4-1.3C20.6,37.7,20.6,35.7,20.6,33.8L20.6,33.8z"/>
	</g>
</g>
</svg>
