<?xml version="1.0" encoding="utf-8"?>
<!-- Generator: Adobe Illustrator 21.0.0, SVG Export Plug-In . SVG Version: 6.00 Build 0)  -->
<svg version="1.1" id="Layer_1" xmlns="http://www.w3.org/2000/svg" xmlns:xlink="http://www.w3.org/1999/xlink" x="0px" y="0px"
	 viewBox="0 0 50 50" style="enable-background:new 0 0 50 50;" xml:space="preserve">
<g>
	<g>
		<path d="M25.9,40.6c-3.7,0-7.4,0-11.2,0c-2.4,0-4-1.5-4-3.9c0-7.6,0.1-15.2,0.1-22.8c0-1.8,1.7-3.5,3.6-3.5c7.8,0,15.5,0,23.3,0
			c1.9,0,3.5,1.6,3.5,3.4c0,7.8,0,15.6,0,23.4c0,2-1.6,3.4-3.6,3.4C33.7,40.6,29.8,40.6,25.9,40.6z M25.9,37c3.3,0,6.6,0,9.8,0
			c1.5,0,1.8-0.4,1.8-1.9c0-2.4,0-4.9,0-7.3c0-1.3,0-2.6,0-3.8c0-1-0.8-0.9-1.5-0.9s-0.9,0.4-0.8,1.1c0.5,3.9-0.9,6.9-4.1,9.1
			c-3.3,2.2-6.8,2.2-10.1,0c-3.2-2-4.5-5.1-4.2-8.8c0.1-0.7,0.2-1.3-0.8-1.3c-1.3-0.1-1.7,0.2-1.7,1.3c0,3.6,0,7.2,0,10.8
			c0,1.5,0.4,1.9,2,1.9C19.5,37,22.7,37,25.9,37z M26,31.2c3.2,0,5.8-2.7,5.8-5.8c0-3-2.8-5.7-5.8-5.7c-3.1,0-5.7,2.7-5.7,5.9
			C20.3,28.7,22.9,31.2,26,31.2z M37.6,16.7c0-0.3,0-0.6,0-0.8c0-1.6-0.4-2-2.1-2c-0.6,0-1.3,0-1.9,0c-1.2,0-1.7,0.5-1.8,1.7
			c0,0.8,0,1.5,0,2.3c0,1.3,0.5,1.8,1.8,1.8c0.7,0,1.4,0,2.2,0c1.3,0,1.8-0.5,1.8-1.8C37.6,17.5,37.6,17.1,37.6,16.7z"/>
	</g>
</g>
</svg>
