<?xml version="1.0" encoding="utf-8"?>
<!-- Generator: Adobe Illustrator 19.2.1, SVG Export Plug-In . SVG Version: 6.00 Build 0)  -->
<svg version="1.1" id="Laag_1" xmlns="http://www.w3.org/2000/svg" xmlns:xlink="http://www.w3.org/1999/xlink" x="0px" y="0px"
	 viewBox="0 0 104.5 30.5" style="enable-background:new 0 0 104.5 30.5;" xml:space="preserve">
<g>
	<path d="M34.2,13.9h2.6v0.9h-3.6V8.4h1V13.9z"/>
	<path d="M40.7,10h0.9v4.8h-0.9V14c-0.3,0.6-0.7,0.9-1.5,0.9c-0.5,0-0.8-0.1-1.1-0.4s-0.4-0.7-0.4-1.1V10h0.9v3
		c0,0.3,0.1,0.6,0.2,0.7C39,14,39.2,14,39.5,14c0.4,0,0.6-0.1,0.9-0.4c0.2-0.3,0.3-0.6,0.3-1.1V10z"/>
	<path d="M43,9c-0.1-0.1-0.2-0.2-0.2-0.4c0-0.2,0.1-0.3,0.2-0.4C43.1,8,43.2,8,43.4,8c0.2,0,0.3,0.1,0.4,0.2C43.9,8.3,44,8.4,44,8.6
		c0,0.2-0.1,0.3-0.2,0.4c-0.1,0.1-0.3,0.2-0.4,0.2C43.2,9.1,43.1,9.1,43,9z M42.9,14.8V10h0.9v4.8H42.9z"/>
	<path d="M47.9,10.2V11c-0.3-0.2-0.7-0.3-1.2-0.3c-0.2,0-0.4,0-0.5,0.1C46.1,11,46,11.1,46,11.3c0,0,0,0.1,0,0.1c0,0,0,0.1,0.1,0.1
		c0,0,0,0.1,0.1,0.1c0,0,0.1,0.1,0.1,0.1c0,0,0.1,0.1,0.1,0.1c0,0,0.1,0,0.1,0.1c0.1,0,0.1,0.1,0.1,0.1c0,0,0.1,0,0.2,0.1
		c0.1,0,0.1,0.1,0.2,0.1c0.4,0.2,0.7,0.3,0.9,0.5c0.2,0.2,0.3,0.5,0.3,0.8c0,0.4-0.2,0.8-0.5,1c-0.3,0.2-0.7,0.4-1.2,0.4
		c-0.6,0-1-0.1-1.4-0.3v-0.9c0.4,0.3,0.9,0.4,1.4,0.4c0.2,0,0.4,0,0.6-0.1c0.1-0.1,0.2-0.2,0.2-0.4c0-0.1-0.1-0.3-0.2-0.4
		C47,13,46.8,13,46.7,12.9c-0.1-0.1-0.3-0.1-0.6-0.2c-0.7-0.3-1.1-0.8-1.1-1.4c0-0.4,0.2-0.7,0.5-1c0.3-0.2,0.7-0.4,1.2-0.4
		C47.2,10,47.6,10,47.9,10.2z"/>
	<path d="M50.3,10.7v2.6c0,0.5,0.2,0.7,0.7,0.7c0.3,0,0.5-0.1,0.6-0.2v0.8c-0.2,0.1-0.5,0.2-0.8,0.2c-1,0-1.5-0.5-1.5-1.5v-2.6h-0.7
		V10h0.7V8.8h0.9V10h1.2v0.7H50.3z"/>
	<path d="M56.2,13.7v0.8c-0.4,0.2-0.8,0.3-1.4,0.3c-0.7,0-1.3-0.2-1.8-0.7c-0.4-0.4-0.7-1-0.7-1.7c0-0.8,0.2-1.4,0.6-1.8
		s0.9-0.7,1.5-0.7c0.6,0,1.1,0.2,1.4,0.6c0.4,0.4,0.5,0.9,0.5,1.6c0,0.2,0,0.4-0.1,0.6h-3.1c0.1,0.4,0.2,0.7,0.5,0.9
		c0.3,0.2,0.7,0.3,1.1,0.3C55.4,14,55.8,13.9,56.2,13.7z M55.6,12v-0.2c0-0.4-0.1-0.6-0.3-0.8c-0.2-0.2-0.4-0.3-0.8-0.3
		c-0.3,0-0.6,0.1-0.8,0.3c-0.2,0.2-0.4,0.6-0.4,1H55.6z"/>
	<path d="M58.5,10v0.8c0.2-0.6,0.6-0.9,1.2-0.9c0.1,0,0.2,0,0.3,0v0.9c-0.1-0.1-0.3-0.1-0.4-0.1c-0.3,0-0.6,0.1-0.8,0.4
		c-0.2,0.3-0.3,0.6-0.3,1v2.5h-0.9V10H58.5z"/>
</g>
<g>
	<path d="M36.4,16.5h0.9v6.6h-0.9v-0.7c-0.3,0.5-0.8,0.8-1.5,0.8c-0.6,0-1.1-0.2-1.5-0.7c-0.4-0.5-0.5-1-0.5-1.7
		c0-0.7,0.2-1.3,0.6-1.8c0.4-0.5,0.9-0.7,1.5-0.7c0.6,0,1.1,0.3,1.4,0.8V16.5z M35.1,22.3c0.4,0,0.7-0.1,0.9-0.4
		c0.3-0.3,0.4-0.7,0.4-1.3c0-0.5-0.1-0.9-0.4-1.2c-0.3-0.3-0.6-0.4-0.9-0.4c-0.4,0-0.7,0.1-0.9,0.4c-0.2,0.3-0.4,0.7-0.4,1.2
		c0,0.5,0.1,0.9,0.4,1.2C34.5,22.2,34.8,22.3,35.1,22.3z"/>
	<path d="M42.2,22v0.8c-0.4,0.2-0.8,0.3-1.4,0.3c-0.7,0-1.3-0.2-1.8-0.7c-0.4-0.4-0.7-1-0.7-1.7c0-0.8,0.2-1.4,0.6-1.8
		c0.4-0.4,0.9-0.7,1.5-0.7c0.6,0,1.1,0.2,1.4,0.6c0.4,0.4,0.5,0.9,0.5,1.6c0,0.2,0,0.4-0.1,0.6h-3.1c0.1,0.4,0.2,0.7,0.5,0.9
		c0.3,0.2,0.7,0.3,1.1,0.3C41.5,22.4,41.9,22.2,42.2,22z M41.6,20.4v-0.2c0-0.4-0.1-0.6-0.3-0.8c-0.2-0.2-0.4-0.3-0.8-0.3
		c-0.3,0-0.6,0.1-0.8,0.3c-0.2,0.2-0.4,0.6-0.4,1H41.6z"/>
	<path d="M46.8,18.3v0.7c0.3-0.5,0.8-0.8,1.5-0.8c0.6,0,1.1,0.2,1.5,0.7s0.5,1,0.5,1.7c0,0.7-0.2,1.3-0.6,1.8
		c-0.4,0.5-0.9,0.7-1.5,0.7c-0.6,0-1.1-0.3-1.4-0.8v2.5h-0.9v-6.6H46.8z M48.1,22.3c0.4,0,0.7-0.1,0.9-0.4c0.2-0.3,0.4-0.7,0.4-1.2
		c0-0.5-0.1-0.9-0.3-1.2c-0.2-0.3-0.5-0.4-0.9-0.4s-0.7,0.1-0.9,0.4c-0.3,0.3-0.4,0.7-0.4,1.2c0,0.6,0.1,1,0.4,1.2
		C47.5,22.2,47.8,22.3,48.1,22.3z"/>
	<path d="M53.3,23.2c-0.7,0-1.3-0.2-1.7-0.7c-0.4-0.5-0.6-1-0.6-1.7c0-0.7,0.2-1.3,0.6-1.8c0.4-0.5,1-0.7,1.6-0.7
		c0.7,0,1.3,0.2,1.7,0.7c0.4,0.5,0.6,1,0.6,1.8c0,0.7-0.2,1.3-0.6,1.8C54.6,22.9,54,23.2,53.3,23.2z M53.3,19
		c-0.4,0-0.7,0.2-0.9,0.5c-0.2,0.3-0.3,0.7-0.3,1.2c0,0.5,0.1,0.9,0.3,1.2c0.2,0.3,0.5,0.5,0.9,0.5c0.4,0,0.7-0.2,1-0.5
		c0.2-0.3,0.3-0.7,0.3-1.2c0-0.5-0.1-0.9-0.3-1.2C54.1,19.2,53.8,19,53.3,19z"/>
	<path d="M59.9,16.5h0.9v6.6h-0.9v-0.7c-0.3,0.5-0.8,0.8-1.5,0.8c-0.6,0-1.1-0.2-1.5-0.7s-0.5-1-0.5-1.7c0-0.7,0.2-1.3,0.6-1.8
		c0.4-0.5,0.9-0.7,1.5-0.7c0.6,0,1.1,0.3,1.4,0.8V16.5z M58.6,22.3c0.4,0,0.7-0.1,0.9-0.4c0.3-0.3,0.4-0.7,0.4-1.3
		c0-0.5-0.1-0.9-0.4-1.2c-0.3-0.3-0.6-0.4-0.9-0.4c-0.4,0-0.7,0.1-0.9,0.4c-0.2,0.3-0.4,0.7-0.4,1.2c0,0.5,0.1,0.9,0.4,1.2
		C57.9,22.2,58.2,22.3,58.6,22.3z"/>
	<path d="M62.8,20.7c0,0.5,0.2,0.9,0.4,1.2c0.3,0.3,0.7,0.5,1.2,0.5c0.4,0,0.7-0.1,1.1-0.3v0.8c-0.3,0.2-0.7,0.3-1.2,0.3
		c-0.7,0-1.3-0.2-1.8-0.7c-0.4-0.5-0.7-1.1-0.7-1.8c0-0.7,0.2-1.3,0.7-1.8c0.4-0.5,1.1-0.7,1.8-0.7c0.4,0,0.8,0.1,1.1,0.3v0.8
		c-0.3-0.2-0.7-0.3-1-0.3c-0.5,0-0.9,0.2-1.2,0.5C62.9,19.8,62.8,20.2,62.8,20.7z"/>
	<path d="M66.6,19.5v-0.9c0.4-0.2,0.9-0.3,1.5-0.3c1.2,0,1.9,0.6,1.9,1.8v3H69v-0.6c-0.2,0.4-0.7,0.6-1.3,0.6
		c-0.5,0-0.8-0.1-1.1-0.4c-0.3-0.3-0.4-0.6-0.4-1c0-0.5,0.2-0.8,0.5-1.1c0.3-0.3,0.8-0.4,1.4-0.4H69V20c0-0.3-0.1-0.6-0.2-0.7
		C68.6,19.1,68.4,19,68,19C67.5,19,67,19.2,66.6,19.5z M69,21h-0.7c-0.3,0-0.6,0.1-0.8,0.2c-0.2,0.1-0.3,0.3-0.3,0.5
		c0,0.2,0.1,0.4,0.2,0.5c0.1,0.1,0.3,0.2,0.6,0.2c0.3,0,0.5-0.1,0.7-0.2c0.2-0.2,0.3-0.4,0.3-0.7V21z"/>
	<path d="M73.9,18.5v0.8c-0.3-0.2-0.7-0.3-1.2-0.3c-0.2,0-0.4,0-0.5,0.1c-0.1,0.1-0.2,0.2-0.2,0.4c0,0,0,0.1,0,0.1
		c0,0,0,0.1,0.1,0.1c0,0,0,0.1,0.1,0.1c0,0,0.1,0.1,0.1,0.1c0,0,0.1,0.1,0.1,0.1c0,0,0.1,0,0.1,0.1c0.1,0,0.1,0.1,0.1,0.1
		c0,0,0.1,0,0.2,0.1c0.1,0,0.1,0.1,0.2,0.1c0.4,0.2,0.7,0.3,0.9,0.5c0.2,0.2,0.3,0.5,0.3,0.8c0,0.4-0.1,0.8-0.5,1
		c-0.3,0.2-0.7,0.4-1.2,0.4c-0.6,0-1-0.1-1.4-0.3V22c0.4,0.3,0.9,0.4,1.4,0.4c0.2,0,0.4,0,0.6-0.1c0.1-0.1,0.2-0.2,0.2-0.4
		c0-0.1-0.1-0.3-0.2-0.4c-0.1-0.1-0.2-0.2-0.3-0.2c-0.1-0.1-0.3-0.1-0.6-0.2c-0.7-0.3-1.1-0.8-1.1-1.4c0-0.4,0.2-0.7,0.5-1
		c0.3-0.2,0.7-0.4,1.2-0.4C73.2,18.3,73.6,18.4,73.9,18.5z"/>
	<path d="M76.3,19v2.6c0,0.5,0.2,0.7,0.7,0.7c0.3,0,0.5-0.1,0.6-0.2V23c-0.2,0.1-0.5,0.2-0.8,0.2c-1,0-1.5-0.5-1.5-1.5V19h-0.7v-0.7
		h0.7v-1.2h0.9v1.2h1.2V19H76.3z"/>
</g>
<g>
	<path d="M81.3,22.1c1-0.2,1.9-0.4,2.9-0.6c1.1-0.3,2.2-0.6,3.3-1.1c0.7-0.3,1.4-0.7,2.1-1.1c1.3-0.8,2.5-1.8,3.3-3.1
		c0.8-1.2,1.3-2.6,1.5-4.1c0.2-1.7,0-3.3-0.4-4.9C94,7,94,7,93.9,6.9c-0.7,0.4-1.4,0.8-2,1.3c0,0,0,0-0.1-0.1
		c0.9-1.7,1.9-3.5,2.8-5.3c1.5,1.5,3,3.1,4.5,4.6c0,0,0,0,0,0c-0.8-0.3-1.7-0.5-2.5-0.8c0,0.4,0.1,0.7,0.1,1
		c0.1,1.4,0.1,2.7-0.2,4.1c-0.2,1.1-0.5,2.2-1,3.3c-0.5,1-1.1,1.8-1.8,2.6c-0.8,0.9-1.7,1.6-2.7,2.2c-0.8,0.4-1.7,0.8-2.5,1.1
		c-0.8,0.3-1.5,0.5-2.3,0.7c-0.8,0.2-1.6,0.3-2.4,0.4C82.9,22,82.1,22.1,81.3,22.1C81.3,22.1,81.3,22.1,81.3,22.1z"/>
</g>
</svg>
