<?xml version="1.0" encoding="utf-8"?>
<!-- Generator: Adobe Illustrator 19.2.1, SVG Export Plug-In . SVG Version: 6.00 Build 0)  -->
<svg version="1.1" id="Layer_1" xmlns="http://www.w3.org/2000/svg" xmlns:xlink="http://www.w3.org/1999/xlink" x="0px" y="0px"
	 viewBox="0 0 268.7 41" style="enable-background:new 0 0 268.7 41;" xml:space="preserve">
<style type="text/css">
	.st0{fill:none;}
	.st1{enable-background:new    ;}
</style>
<rect x="102.9" y="3.1" class="st0" width="226.4" height="16.9"/>
<g class="st1">
	<g>
		<path d="M113,8.3c-0.9-0.3-1.6-0.4-2.2-0.4c-0.5,0-0.9,0.1-1.1,0.3s-0.4,0.4-0.4,0.8c0,0.3,0.1,0.6,0.4,0.8
			c0.2,0.2,0.5,0.4,0.9,0.5c0.4,0.1,0.9,0.3,1.6,0.5c1,0.3,1.9,0.6,2.5,0.9c0.7,0.3,1.2,0.7,1.7,1.4c0.5,0.6,0.7,1.4,0.7,2.4
			c0,1-0.3,1.8-0.8,2.5c-0.5,0.7-1.2,1.2-2.1,1.6c-0.9,0.3-1.9,0.5-3,0.5c-1.2,0-2.4-0.2-3.6-0.6c-1.2-0.4-2.3-1-3.1-1.8l1.5-3
			c0.7,0.7,1.6,1.2,2.6,1.6s1.9,0.6,2.7,0.6c0.6,0,1-0.1,1.4-0.3c0.3-0.2,0.5-0.5,0.5-0.9c0-0.3-0.1-0.6-0.4-0.8
			c-0.2-0.2-0.6-0.4-0.9-0.5s-0.9-0.3-1.6-0.5c-1-0.3-1.8-0.6-2.5-0.9s-1.2-0.7-1.7-1.3s-0.7-1.4-0.7-2.3c0-0.9,0.2-1.7,0.7-2.4
			c0.5-0.7,1.2-1.2,2.1-1.6c0.9-0.4,1.9-0.6,3.1-0.6c1.1,0,2.1,0.2,3.1,0.5c1,0.3,1.9,0.7,2.7,1.2l-1.4,3.1
			C114.7,9,113.9,8.6,113,8.3z"/>
		<path d="M129.7,6.4c1,0.9,1.6,2.2,1.6,3.8c0,1.7-0.5,3.1-1.6,4c-1,1-2.5,1.4-4.4,1.4h-2.6v4.1h-3.8V5h6.5
			C127.2,5,128.7,5.5,129.7,6.4z M127,12c0.4-0.4,0.6-1,0.6-1.7c0-0.7-0.2-1.3-0.6-1.6c-0.4-0.4-1-0.6-1.8-0.6h-2.4v4.5h2.4
			C126,12.6,126.6,12.4,127,12z"/>
		<path d="M142.9,19.7l-1-2.6h-6.4l-1,2.6h-3.9L136.9,5h3.9l6.2,14.7H142.9z M136.7,14.2h4.1l-2-5.3L136.7,14.2z"/>
		<path d="M159.1,19.7l-1-2.6h-6.4l-1,2.6h-3.9L153.1,5h3.9l6.2,14.7H159.1z M152.9,14.2h4.1l-2-5.3L152.9,14.2z"/>
		<path d="M173.4,19.7l-2.1-4.1h-0.1h-2.8v4.1h-3.8V5h6.6c1.9,0,3.5,0.5,4.5,1.4c1.1,0.9,1.6,2.2,1.6,3.8c0,1.1-0.2,2.1-0.7,2.9
			c-0.4,0.8-1.1,1.4-2,1.9l3.1,4.8H173.4z M168.4,12.6h2.8c0.8,0,1.4-0.2,1.8-0.6c0.4-0.4,0.6-1,0.6-1.7c0-0.7-0.2-1.3-0.6-1.6
			c-0.4-0.4-1-0.6-1.8-0.6h-2.8V12.6z"/>
		<path d="M189.8,5h3.6v14.7H190l-6.7-8.8v8.8h-3.6V5h3.4l6.7,8.9L189.8,5z"/>
		<path d="M196.2,5h11.6v3.1h-7.8v2.8h7v3l-7,0v2.8h8v3.1h-11.8V5z"/>
		<path d="M218,8.3c-0.9-0.3-1.6-0.4-2.2-0.4c-0.5,0-0.9,0.1-1.1,0.3c-0.3,0.2-0.4,0.4-0.4,0.8c0,0.3,0.1,0.6,0.4,0.8
			c0.2,0.2,0.5,0.4,0.9,0.5c0.3,0.1,0.9,0.3,1.6,0.5c1,0.3,1.9,0.6,2.5,0.9c0.7,0.3,1.2,0.7,1.7,1.4c0.5,0.6,0.7,1.4,0.7,2.4
			c0,1-0.3,1.8-0.8,2.5c-0.5,0.7-1.2,1.2-2.1,1.6c-0.9,0.3-1.9,0.5-3,0.5c-1.2,0-2.4-0.2-3.6-0.6s-2.3-1-3.1-1.8l1.5-3
			c0.7,0.7,1.6,1.2,2.6,1.6c1,0.4,1.9,0.6,2.7,0.6c0.6,0,1-0.1,1.4-0.3s0.5-0.5,0.5-0.9c0-0.3-0.1-0.6-0.4-0.8
			c-0.2-0.2-0.6-0.4-0.9-0.5c-0.4-0.1-0.9-0.3-1.6-0.5c-1-0.3-1.8-0.6-2.5-0.9c-0.7-0.3-1.2-0.7-1.7-1.3c-0.5-0.6-0.7-1.4-0.7-2.3
			c0-0.9,0.2-1.7,0.7-2.4c0.5-0.7,1.2-1.2,2.1-1.6c0.9-0.4,1.9-0.6,3.1-0.6c1.1,0,2.1,0.2,3.2,0.5s1.9,0.7,2.7,1.2l-1.4,3.1
			C219.8,9,218.9,8.6,218,8.3z"/>
		<path d="M222.7,5h12.6v3.2h-4.4v11.5h-3.8V8.2h-4.4V5z"/>
		<path d="M246.1,19.7l-1-2.6h-6.4l-1,2.6h-3.9L240.1,5h3.9l6.2,14.7H246.1z M239.9,14.2h4.1l-2-5.3L239.9,14.2z"/>
		<path d="M262,5.9c1.2,0.6,2.1,1.5,2.8,2.6c0.7,1.1,1,2.4,1,3.8c0,1.4-0.3,2.7-1,3.8c-0.7,1.1-1.6,2-2.8,2.6s-2.6,0.9-4.2,0.9h-6.2
			V5h6.3C259.4,5,260.8,5.3,262,5.9z M260,16.1c0.6-0.3,1-0.8,1.3-1.5c0.3-0.6,0.5-1.4,0.5-2.2c0-0.8-0.2-1.6-0.5-2.2
			c-0.3-0.6-0.8-1.1-1.4-1.5c-0.6-0.4-1.3-0.5-2.1-0.5h-2.4v8.5h2.6C258.7,16.6,259.4,16.4,260,16.1z"/>
	</g>
</g>
<rect x="102.9" y="20.1" class="st0" width="226.4" height="16.9"/>
<g class="st1">
	<path d="M116.2,23.4c1,0.9,1.6,2.2,1.6,3.8c0,1.7-0.5,3.1-1.6,4c-1,1-2.5,1.4-4.4,1.4h-2.6v4.1h-3.8V22h6.5
		C113.7,22,115.1,22.5,116.2,23.4z M113.4,29c0.4-0.4,0.6-1,0.6-1.7c0-0.7-0.2-1.3-0.6-1.6c-0.4-0.4-1-0.6-1.8-0.6h-2.4v4.5h2.4
		C112.4,29.6,113,29.4,113.4,29z"/>
	<path d="M119.6,22h3.8v6h5.9v-6h3.8v14.7h-3.8v-5.6h-5.9v5.6h-3.8V22z"/>
	<path d="M147.2,22.8c1.2,0.7,2.2,1.6,2.9,2.7c0.7,1.1,1,2.4,1,3.9c0,1.4-0.3,2.7-1,3.9c-0.7,1.2-1.6,2.1-2.9,2.8s-2.6,1-4.1,1
		s-2.9-0.3-4.1-1s-2.2-1.6-2.9-2.8s-1-2.5-1-3.9c0-1.4,0.3-2.7,1-3.9c0.7-1.1,1.6-2.1,2.9-2.7s2.6-1,4.1-1S146,22.1,147.2,22.8z
		 M141.1,25.6c-0.6,0.4-1.1,0.9-1.5,1.6c-0.4,0.7-0.5,1.4-0.5,2.2c0,0.8,0.2,1.6,0.6,2.2s0.9,1.2,1.5,1.6c0.6,0.4,1.3,0.6,2,0.6
		s1.4-0.2,2-0.6c0.6-0.4,1.1-0.9,1.4-1.6c0.3-0.7,0.5-1.4,0.5-2.2c0-0.8-0.2-1.5-0.5-2.2c-0.4-0.7-0.8-1.2-1.4-1.6
		c-0.6-0.4-1.3-0.6-2-0.6S141.7,25.2,141.1,25.6z"/>
	<path d="M151.2,22h12.6v3.2h-4.4v11.5h-3.8V25.2h-4.4V22z"/>
	<path d="M175.7,22.8c1.2,0.7,2.2,1.6,2.9,2.7c0.7,1.1,1,2.4,1,3.9c0,1.4-0.3,2.7-1,3.9c-0.7,1.2-1.6,2.1-2.9,2.8
		c-1.2,0.7-2.6,1-4.1,1c-1.5,0-2.9-0.3-4.1-1c-1.2-0.7-2.2-1.6-2.9-2.8s-1-2.5-1-3.9c0-1.4,0.3-2.7,1-3.9c0.7-1.1,1.6-2.1,2.9-2.7
		c1.2-0.7,2.6-1,4.1-1C173.2,21.8,174.5,22.1,175.7,22.8z M169.7,25.6c-0.6,0.4-1.1,0.9-1.5,1.6s-0.5,1.4-0.5,2.2
		c0,0.8,0.2,1.6,0.6,2.2s0.9,1.2,1.5,1.6c0.6,0.4,1.3,0.6,2,0.6c0.7,0,1.4-0.2,2-0.6c0.6-0.4,1.1-0.9,1.4-1.6s0.5-1.4,0.5-2.2
		c0-0.8-0.2-1.5-0.5-2.2s-0.8-1.2-1.4-1.6c-0.6-0.4-1.3-0.6-2-0.6C171,25,170.3,25.2,169.7,25.6z"/>
</g>
<rect x="191.9" y="28.1" class="st0" width="226.4" height="16.9"/>
<g>
	<g>
		<path d="M2.3,21.2c0-1.5,0.4-2.6,1.2-3.5c0.8-0.9,1.8-1.3,3.2-1.3c1.3,0,2.4,0.4,3.2,1.3c0.8,0.9,1.2,2.1,1.2,3.5
			s-0.4,2.7-1.2,3.5S8,26,6.6,26c-1.3,0-2.4-0.4-3.2-1.3C2.7,23.8,2.3,22.6,2.3,21.2z M4.6,18.6c-0.5,0.6-0.7,1.5-0.7,2.6
			s0.3,1.9,0.8,2.6c0.5,0.6,1.2,1,2.1,1c0.9,0,1.6-0.3,2.1-0.9c0.5-0.6,0.7-1.5,0.7-2.6c0-1.1-0.2-2-0.7-2.6
			c-0.5-0.6-1.2-0.9-2.1-0.9C5.8,17.7,5.1,18,4.6,18.6z"/>
		<path d="M14,18.8V20c0.4-0.9,1.2-1.3,2.2-1.3c0.7,0,1.3,0.2,1.7,0.6s0.6,1,0.6,1.8v4.8h-1.4v-4.5c0-0.5-0.1-0.9-0.4-1.1
			c-0.2-0.3-0.6-0.4-1-0.4c-0.5,0-0.9,0.2-1.2,0.6S14,21.4,14,22.1v3.9h-1.4v-7.1H14z"/>
		<path d="M25.1,16h1.4v9.9h-1.4v-1.1c-0.5,0.8-1.2,1.2-2.2,1.2c-0.9,0-1.7-0.4-2.2-1.1c-0.5-0.7-0.8-1.6-0.8-2.6
			c0-1.1,0.3-2,0.9-2.7c0.6-0.7,1.3-1,2.2-1c0.9,0,1.6,0.4,2.1,1.2V16z M23.2,24.8c0.5,0,1-0.2,1.4-0.6c0.4-0.4,0.6-1,0.6-1.9
			c0-0.8-0.2-1.4-0.6-1.8c-0.4-0.4-0.8-0.6-1.3-0.6c-0.6,0-1,0.2-1.4,0.7c-0.4,0.4-0.5,1.1-0.5,1.9c0,0.7,0.2,1.3,0.5,1.7
			C22.2,24.6,22.6,24.8,23.2,24.8z"/>
		<path d="M33.7,24.3v1.2c-0.5,0.3-1.2,0.4-2.1,0.4c-1.1,0-2-0.3-2.6-1c-0.7-0.7-1-1.5-1-2.6c0-1.1,0.3-2,0.9-2.7
			c0.6-0.6,1.4-1,2.3-1c0.9,0,1.6,0.3,2.2,0.8c0.5,0.6,0.8,1.4,0.8,2.4c0,0.3,0,0.6-0.1,0.9h-4.7c0.1,0.6,0.4,1.1,0.8,1.4
			c0.4,0.3,1,0.5,1.6,0.5C32.6,24.8,33.2,24.7,33.7,24.3z M32.8,21.9v-0.3c0-0.5-0.2-1-0.4-1.3c-0.3-0.3-0.7-0.5-1.2-0.5
			c-0.5,0-0.9,0.2-1.2,0.5c-0.3,0.3-0.5,0.8-0.6,1.5H32.8z"/>
		<path d="M37.1,18.8v1.2c0.3-0.9,1-1.3,1.9-1.3c0.1,0,0.3,0,0.4,0v1.3C39.2,20.1,39,20,38.8,20c-0.5,0-0.9,0.2-1.2,0.6
			c-0.3,0.4-0.5,0.9-0.5,1.5v3.8h-1.4v-7.1H37.1z"/>
		<path d="M45.3,16h1.4v9.9h-1.4v-1.1c-0.5,0.8-1.2,1.2-2.2,1.2c-0.9,0-1.7-0.4-2.2-1.1c-0.5-0.7-0.8-1.6-0.8-2.6
			c0-1.1,0.3-2,0.9-2.7c0.6-0.7,1.3-1,2.2-1c0.9,0,1.6,0.4,2.1,1.2V16z M43.4,24.8c0.5,0,1-0.2,1.4-0.6c0.4-0.4,0.6-1,0.6-1.9
			c0-0.8-0.2-1.4-0.6-1.8c-0.4-0.4-0.8-0.6-1.3-0.6c-0.6,0-1,0.2-1.4,0.7c-0.4,0.4-0.5,1.1-0.5,1.9c0,0.7,0.2,1.3,0.5,1.7
			C42.4,24.6,42.9,24.8,43.4,24.8z"/>
		<path d="M53.9,24.3v1.2c-0.5,0.3-1.2,0.4-2.1,0.4c-1.1,0-2-0.3-2.6-1c-0.7-0.7-1-1.5-1-2.6c0-1.1,0.3-2,0.9-2.7
			c0.6-0.6,1.4-1,2.3-1c0.9,0,1.6,0.3,2.2,0.8c0.5,0.6,0.8,1.4,0.8,2.4c0,0.3,0,0.6-0.1,0.9h-4.7c0.1,0.6,0.4,1.1,0.8,1.4
			c0.4,0.3,1,0.5,1.6,0.5C52.8,24.8,53.4,24.7,53.9,24.3z M53,21.9v-0.3c0-0.5-0.2-1-0.4-1.3c-0.3-0.3-0.7-0.5-1.2-0.5
			c-0.5,0-0.9,0.2-1.2,0.5c-0.3,0.3-0.5,0.8-0.6,1.5H53z"/>
		<path d="M61.3,24.3v1.2c-0.5,0.3-1.2,0.4-2.1,0.4c-1.1,0-2-0.3-2.6-1c-0.7-0.7-1-1.5-1-2.6c0-1.1,0.3-2,0.9-2.7
			c0.6-0.6,1.4-1,2.3-1c0.9,0,1.6,0.3,2.2,0.8c0.5,0.6,0.8,1.4,0.8,2.4c0,0.3,0,0.6-0.1,0.9H57c0.1,0.6,0.4,1.1,0.8,1.4
			c0.4,0.3,1,0.5,1.6,0.5C60.1,24.8,60.8,24.7,61.3,24.3z M60.4,21.9v-0.3c0-0.5-0.2-1-0.4-1.3c-0.3-0.3-0.7-0.5-1.2-0.5
			c-0.5,0-0.9,0.2-1.2,0.5c-0.3,0.3-0.5,0.8-0.6,1.5H60.4z"/>
		<path d="M63.4,25.9V16h1.4v9.9H63.4z"/>
		<path d="M72,25.9l-2.5-7.1h1.4l1,3c0.2,0.7,0.4,1.3,0.6,1.8c0.2,0.5,0.2,0.8,0.3,1l0.1,0.2c0.1-0.5,0.4-1.5,0.9-3l1-3h1.4
			l-2.6,7.1H72z"/>
		<path d="M77.6,20.5v-1.3c0.6-0.3,1.3-0.5,2.2-0.5c1.9,0,2.8,0.9,2.8,2.7v4.5h-1.4v-0.8c-0.4,0.6-1,0.9-1.9,0.9
			c-0.7,0-1.2-0.2-1.6-0.6C77.2,25,77,24.5,77,23.9c0-0.7,0.3-1.2,0.8-1.6c0.5-0.4,1.2-0.6,2.2-0.6h1.2v-0.4c0-0.5-0.1-0.9-0.4-1.1
			c-0.2-0.2-0.6-0.4-1.2-0.4C78.9,19.9,78.2,20.1,77.6,20.5z M81.1,22.8h-1.1c-0.5,0-0.9,0.1-1.2,0.3c-0.3,0.2-0.4,0.5-0.4,0.8
			c0,0.3,0.1,0.6,0.3,0.8c0.2,0.2,0.5,0.3,0.9,0.3c0.4,0,0.8-0.1,1.1-0.4c0.3-0.2,0.4-0.6,0.4-1V22.8z"/>
		<path d="M85.8,18.8V20c0.4-0.9,1.2-1.3,2.2-1.3c0.7,0,1.3,0.2,1.7,0.6s0.6,1,0.6,1.8v4.8h-1.4v-4.5c0-0.5-0.1-0.9-0.4-1.1
			c-0.2-0.3-0.6-0.4-1-0.4c-0.5,0-0.9,0.2-1.2,0.6s-0.5,0.9-0.5,1.6v3.9h-1.4v-7.1H85.8z"/>
	</g>
</g>
</svg>
